<svg viewbox="0 0 700 700" xmlns="http://www.w3.org/2000/svg">
    <g transform="scale(0.04)" stroke="#555753">
    <g id="available" fill="#4e9a06">
    <path d="m350 14c-146.72 0-266 119.28-266 266s119.28 266 266 266 266-119.28 266-266-119.28-266-266-266zm0 459.76c-106.96 0-193.76-86.801-193.76-193.76s86.801-193.76 193.76-193.76 193.76 86.801 193.76 193.76-86.801 193.76-193.76 193.76z"/>
    <path d="m399.28 211.12-72.801 78.398-25.762-28c-13.441-14.559-36.398-15.68-50.961-1.6797-14.559 13.441-15.68 36.398-1.6797 50.961l52.641 56.559c6.7188 7.2812 16.238 11.762 26.32 11.762 10.078 0 19.602-3.9219 26.32-11.762l99.121-106.96c13.441-14.559 12.879-37.52-1.6797-50.961-15.121-13.996-38.082-12.879-51.52 1.6836z"/>
    </g>
    <g id="alert" fill="#edd400">
      <path stroke-width="75" d="m379.68 98.559c-6.1602-10.641-17.359-16.801-29.68-16.801s-23.52 6.1602-29.68 16.801l-189.84 328.72c-6.1602 10.641-6.1602 23.52 0 34.16 6.1602 10.641 17.359 16.801 29.68 16.801h379.68c12.32 0 23.52-6.1602 29.68-16.801 6.1602-10.641 6.1602-23.52 0-34.16zm-29.68 305.76c-12.32 0-22.398-10.078-22.398-22.398s10.078-22.398 22.398-22.398 22.398 10.078 22.398 22.398c0 12.316-10.078 22.398-22.398 22.398zm14.559-67.762c-0.55859 7.8398-6.7188 13.441-14.559 13.441s-14-6.1602-14.559-13.441l-7.8398-116.48c-0.55859-8.3984 6.1602-15.68 14.559-15.68h15.68c8.3984 0 15.121 7.2812 14.559 15.68z"/>
      <path d="m379.68 98.559c-6.1602-10.641-17.359-16.801-29.68-16.801s-23.52 6.1602-29.68 16.801l-189.84 328.72c-6.1602 10.641-6.1602 23.52 0 34.16 6.1602 10.641 17.359 16.801 29.68 16.801h379.68c12.32 0 23.52-6.1602 29.68-16.801 6.1602-10.641 6.1602-23.52 0-34.16zm-29.68 305.76c-12.32 0-22.398-10.078-22.398-22.398s10.078-22.398 22.398-22.398 22.398 10.078 22.398 22.398c0 12.316-10.078 22.398-22.398 22.398zm14.559-67.762c-0.55859 7.8398-6.7188 13.441-14.559 13.441s-14-6.1602-14.559-13.441l-7.8398-116.48c-0.55859-8.3984 6.1602-15.68 14.559-15.68h15.68c8.3984 0 15.121 7.2812 14.559 15.68z"/>
    </g>
    <path id="unavailable" fill="#555753" d="m505.12 132.16c-85.68-85.68-224-85.68-309.68 0-85.68 85.68-85.68 224 0 309.68 85.68 85.68 224 85.68 309.68 0 85.117-85.68 85.117-224.56 0-309.68zm-247.52 247.52c-40.32-40.32-48.719-100.24-25.199-148.96l174.16 174.16c-48.723 22.961-108.64 15.121-148.96-25.199zm210.56-36.961-174.16-174.16c48.719-22.961 108.64-15.121 148.96 25.199 40.32 40.32 48.719 100.24 25.199 148.96z" fill-rule="evenodd"/>
    <g id="late" fill="#f57900">
    <path d="m600.88 273.28c-4.4805-10.082-16.238-15.121-26.879-10.082-14 6.1602-33.602 14.559-47.039 20.719v-0.55859c-7.8398-20.719-19.602-51.52-48.719-63.281-7.2812-2.8008-19.039-7.8398-19.039-7.8398l-6.1602-2.8008s-3.9219-1.6797-6.1602-2.8008c-42-17.922-115.36 7.8398-128.24 21.281-7.2812 7.2812-33.039 44.238-43.68 59.922-6.1602 9.5195-3.9219 21.84 5.0391 28.559 9.5195 6.7188 21.84 3.9219 28.559-5.0391 15.121-21.84 33.602-48.16 38.641-54.32 4.4805-2.8008 15.121-6.7188 28-10.078-19.039 29.121-35.281 70-36.961 90.719-2.2383 10.641-3.3594 22.398-4.4805 35.281-1.6797 21.84-3.9219 46.48-12.879 61.602-20.719 34.719-54.32 68.32-54.879 68.879-9.5195 9.5195-9.5195 24.641 0 33.602 9.5195 9.5195 24.641 9.5195 33.602 0 1.6797-1.6797 38.641-38.078 62.16-78.398 14-23.52 16.801-54.32 19.039-79.52 16.801 11.199 43.121 29.121 52.078 38.641-2.8008 16.238-16.238 60.48-28.559 97.441-3.9219 12.32 2.8008 26.32 15.121 30.238 2.2383 0.55859 5.0391 1.1211 7.2812 1.1211 10.078 0 19.602-6.1602 22.961-16.238 11.762-35.84 31.922-99.121 31.359-117.6-0.55859-17.922-16.801-33.602-52.078-58.801 11.199-26.879 28-63.84 45.359-84.559 5.6016 8.3984 9.5195 19.602 13.441 28.559 4.4805 11.762 12.32 32.48 29.121 32.48 2.8008 0 5.6016-0.55859 8.9609-1.6797 11.762-3.9219 58.801-25.199 64.398-27.441 10.629-5.6055 15.672-17.363 10.629-28.004z"/>
    <path d="m499.26 109.38c24.164 10.352 35.363 38.332 25.012 62.496-10.348 24.164-38.328 35.363-62.492 25.012-24.164-10.348-35.363-38.328-25.016-62.492 10.352-24.164 38.332-35.363 62.496-25.016"/>
    <path d="m163.52 221.2h109.76c6.1602 0 11.199-5.0391 11.199-11.199s-5.0391-11.199-11.199-11.199h-109.76c-6.1602 0-11.199 5.0391-11.199 11.199s5.0391 11.199 11.199 11.199z"/>
    <path d="m245.84 243.04h-109.76c-6.1602 0-11.199 5.0391-11.199 11.199 0 6.1602 5.0391 11.199 11.199 11.199h109.76c6.1602 0 11.199-5.0391 11.199-11.199 0-6.1602-5.0391-11.199-11.199-11.199z"/>
    <path d="m217.84 287.84h-109.2c-6.1602 0-11.199 5.0391-11.199 11.199 0 6.1602 5.0391 11.199 11.199 11.199h109.76c6.1602 0 11.199-5.0391 11.199-11.199 0-6.1602-5.043-11.199-11.762-11.199z"/>
    <path d="m325.92 142.24c35.281 0 63.84-28.559 63.84-63.84s-28.559-63.84-63.84-63.84-63.84 28.559-63.84 63.84c-0.5625 35.281 28.559 63.84 63.84 63.84zm0-109.2c24.641 0 44.801 20.16 44.801 44.801s-20.16 44.801-44.801 44.801-44.801-20.16-44.801-44.801 20.16-44.801 44.801-44.801z"/>
    <path d="m325.92 85.121h19.602c3.9219 0 7.2812-3.3594 7.2812-7.2812s-3.3594-7.2812-7.2812-7.2812h-12.324v-20.16c0-3.9219-3.3594-7.2812-7.2812-7.2812s-7.2812 3.3594-7.2812 7.2812v28c0.003906 3.3633 3.3633 6.7227 7.2852 6.7227z"/>
    </g>
    <g id="missing" fill="#ef2929">
    <path d="m133.11 354.54 32.086 10.586v78.734c0 9.8789 3.9258 19.348 10.906 26.332 6.9844 6.9844 16.457 10.91 26.336 10.91h80.078l16.801 58.297v-0.003906c1.5 5.2734 5.0312 9.7344 9.8203 12.402s10.441 3.3242 15.715 1.8242l214.26-61.211c5.2734-1.4961 9.7344-5.0312 12.402-9.8203 2.668-4.7891 3.3203-10.441 1.8203-15.715l-31.75-111.1c31.531-32.719 51.438-74.898 56.645-120.04 5.2109-45.141-4.5625-90.742-27.816-129.78-23.254-39.043-58.695-69.355-100.87-86.273-42.172-16.918-88.738-19.504-132.53-7.3594-43.789 12.148-82.367 38.352-109.8 74.578-27.434 36.227-42.195 80.465-42.016 125.91 0.007812 14.082-2.9492 28.012-8.6797 40.879l-34.16 76.719c-1.9844 4.6094-1.9492 9.8398 0.089844 14.426 2.043 4.582 5.9102 8.1055 10.664 9.7109zm240.8 5.6016h-0.003906c-5.9375 0-11.637-2.3594-15.836-6.5625-4.2031-4.1992-6.5625-9.8984-6.5625-15.84 0-5.9375 2.3594-11.637 6.5625-15.836 4.1992-4.2031 9.8984-6.5625 15.836-6.5625 5.9414 0 11.641 2.3594 15.84 6.5625 4.2031 4.1992 6.5625 9.8984 6.5625 15.836-0.058594 5.8633-2.4141 11.473-6.5586 15.617-4.1484 4.1484-9.7539 6.5039-15.617 6.5586zm-68.379-216.83c6.1289-12.852 15.758-23.711 27.785-31.332 12.027-7.6172 25.961-11.684 40.199-11.734h0.44922c19.754 0.13281 38.699 7.8789 52.887 21.625 14.188 13.75 22.523 32.441 23.273 52.184 0.55469 16.305-4.1719 32.352-13.477 45.754-9.3047 13.398-22.688 23.438-38.156 28.613-0.55859 0-2.0703 0.95313-2.0703 1.9023v17.699c0 8.0039-4.2695 15.398-11.203 19.398-6.9297 4.0039-15.469 4.0039-22.398 0-6.9297-4-11.199-11.395-11.199-19.398v-17.695c0.10547-9.8359 3.2891-19.395 9.1055-27.328 5.8164-7.9336 13.969-13.848 23.316-16.914 6.375-2.1484 11.887-6.293 15.719-11.82 3.832-5.5273 5.7812-12.145 5.5625-18.867-0.4375-8.1328-3.9492-15.797-9.8242-21.441-5.8711-5.6445-13.672-8.8477-21.816-8.9648-5.8711 0.03125-11.609 1.7227-16.562 4.8711-4.9531 3.1523-8.918 7.6328-11.438 12.938-3.7656 6.6719-10.68 10.957-18.332 11.359-7.6484 0.40234-14.977-3.1328-19.422-9.375-4.4414-6.2383-5.3906-14.316-2.5078-21.418z"/>
    </g>
    </g>
</svg>
