<svg xmlns:dc="http://purl.org/dc/elements/1.1/" xmlns:cc="http://creativecommons.org/ns#" xmlns:rdf="http://www.w3.org/1999/02/22-rdf-syntax-ns#" xmlns:svg="http://www.w3.org/2000/svg" xmlns="http://www.w3.org/2000/svg" xmlns:sodipodi="http://sodipodi.sourceforge.net/DTD/sodipodi-0.dtd" xmlns:inkscape="http://www.inkscape.org/namespaces/inkscape" version="1.1" x="0px" y="0px" viewBox="0 0 100 125"><g transform="translate(0,-952.36218)"><path style="text-indent:0;text-transform:none;direction:ltr;block-progression:tb;baseline-shift:baseline;color:#000000;enable-background:accumulate;" d="m 50,977.06527 c 17.6494,0 32,14.3507 32,32.00003 0,6.9222 -2.2204,13.3532 -5.9688,18.5938 l -3.125,-2.4688 C 76.109,1020.6373 78,1015.0667 78,1009.0653 78,993.57767 65.4876,981.06527 50,981.06527 c -15.4877,0 -28,12.5124 -28,28.00003 0,6.0014 1.8911,11.572 5.0938,16.125 l -3.125,2.4688 C 20.2206,1022.4185 18,1015.9875 18,1009.0653 18,991.41597 32.3506,977.06527 50,977.06527 z m -17.6875,21.3125 21.2187,14.15633 c 1.9528,1.9527 1.9528,5.1098 0,7.0624 -1.9527,1.9527 -5.11,1.9527 -7.0624,0 L 32.3125,998.37777 z" fill="#000000" fill-opacity="1" stroke="none" marker="none" visibility="visible" display="inline" overflow="visible"/></g><text x="0" y="115" fill="#000000" font-size="5px" font-weight="bold" font-family="'Helvetica Neue', Helvetica, Arial-Unicode, Arial, Sans-serif">Created by Aybige</text><text x="0" y="120" fill="#000000" font-size="5px" font-weight="bold" font-family="'Helvetica Neue', Helvetica, Arial-Unicode, Arial, Sans-serif">from the Noun Project</text></svg>